<svg xmlns="http://www.w3.org/2000/svg" xmlns:xlink="http://www.w3.org/1999/xlink" width="24" height="24" viewBox="0 0 24 24">
  <defs>
    <linearGradient id="linear-gradient" x1="0.5" x2="0.5" y2="1" gradientUnits="objectBoundingBox">
      <stop offset="0" stop-color="#e09b3d"/>
      <stop offset="0.3" stop-color="#c74c4d"/>
      <stop offset="0.6" stop-color="#c21975"/>
      <stop offset="1" stop-color="#7024c4"/>
    </linearGradient>
  </defs>
  <g id="inta" transform="translate(-1748.837 -472.464)">
    <circle id="Ellipse_1026" data-name="Ellipse 1026" cx="12" cy="12" r="12" transform="translate(1748.837 472.464)" fill="url(#linear-gradient)"/>
    <g id="Group_18932" data-name="Group 18932" transform="translate(1753.282 476.909)">
      <g id="Group_18931" data-name="Group 18931" transform="translate(0)">
        <path id="Path_35046" data-name="Path 35046" d="M1781.393,498.825c2.017,0,2.257.008,3.053.044a4.183,4.183,0,0,1,1.4.26,2.5,2.5,0,0,1,1.434,1.434,4.178,4.178,0,0,1,.26,1.4c.036.8.044,1.036.044,3.053s-.008,2.256-.044,3.053a4.177,4.177,0,0,1-.26,1.4,2.5,2.5,0,0,1-1.434,1.434,4.18,4.18,0,0,1-1.4.26c-.8.036-1.036.044-3.053.044s-2.256-.008-3.053-.044a4.18,4.18,0,0,1-1.4-.26,2.5,2.5,0,0,1-1.434-1.434,4.178,4.178,0,0,1-.26-1.4c-.036-.8-.044-1.036-.044-3.053s.008-2.256.044-3.053a4.179,4.179,0,0,1,.26-1.4,2.5,2.5,0,0,1,1.434-1.434,4.182,4.182,0,0,1,1.4-.26c.8-.036,1.036-.044,3.053-.044m0-1.361c-2.052,0-2.309.009-3.115.046a5.549,5.549,0,0,0-1.834.351,3.863,3.863,0,0,0-2.21,2.21,5.547,5.547,0,0,0-.351,1.834c-.037.806-.045,1.063-.045,3.115s.009,2.309.045,3.115a5.546,5.546,0,0,0,.351,1.834,3.863,3.863,0,0,0,2.21,2.21,5.544,5.544,0,0,0,1.834.351c.806.037,1.063.045,3.115.045s2.309-.009,3.115-.045a5.544,5.544,0,0,0,1.834-.351,3.863,3.863,0,0,0,2.209-2.21,5.542,5.542,0,0,0,.351-1.834c.037-.806.045-1.063.045-3.115s-.009-2.309-.045-3.115a5.543,5.543,0,0,0-.351-1.834,3.863,3.863,0,0,0-2.209-2.21,5.549,5.549,0,0,0-1.834-.351c-.806-.037-1.063-.046-3.115-.046Z" transform="translate(-1773.837 -497.464)" fill="#fff"/>
        <path id="Path_35047" data-name="Path 35047" d="M1798.393,518.14a3.88,3.88,0,1,0,3.88,3.88A3.88,3.88,0,0,0,1798.393,518.14Zm0,6.4a2.519,2.519,0,1,1,2.519-2.519A2.519,2.519,0,0,1,1798.393,524.538Z" transform="translate(-1790.837 -514.464)" fill="#fff"/>
        <circle id="Ellipse_1027" data-name="Ellipse 1027" cx="0.907" cy="0.907" r="0.907" transform="translate(10.682 2.616)" fill="#fff"/>
      </g>
    </g>
  </g>
</svg>
