<svg xmlns="http://www.w3.org/2000/svg" width="24" height="24" viewBox="0 0 24 24">
  <g id="utube" transform="translate(-1429.609 -652.104)">
    <circle id="Ellipse_1030" data-name="Ellipse 1030" cx="12" cy="12" r="12" transform="translate(1429.609 652.103)" fill="#f8f8f8"/>
    <path id="Path_35051" data-name="Path 35051" d="M1467.775,689.852a2,2,0,0,0-1.415-1.415,58.594,58.594,0,0,0-12.5,0,2,2,0,0,0-1.415,1.415,22.354,22.354,0,0,0,0,7.7,2,2,0,0,0,1.415,1.415,58.626,58.626,0,0,0,12.5,0,2,2,0,0,0,1.415-1.415,22.346,22.346,0,0,0,0-7.7Zm-9.266,6.251v-4.8l4.157,2.4Z" transform="translate(-18.5 -29.6)" fill="#f44336"/>
  </g>
</svg>
