<svg xmlns="http://www.w3.org/2000/svg" xmlns:xlink="http://www.w3.org/1999/xlink" width="417" height="150" viewBox="0 0 417 150"><defs><clipPath id="clip-path"><rect id="Rectangle_16894" width="417" height="150" fill="none" data-name="Rectangle 16894" transform="translate(1023 618)"/></clipPath><linearGradient id="linear-gradient" x1=".509" x2=".584" y1=".758" y2="1.103" gradientUnits="objectBoundingBox"><stop offset="0" stop-color="#fff"/><stop offset="1" stop-color="#e8e8e8"/></linearGradient><linearGradient id="linear-gradient-2" x1=".125" x2=".857" y1=".155" y2="1.202" xlink:href="#linear-gradient"/><linearGradient id="linear-gradient-3" x1=".524" x2=".63" y1=".863" y2="1.271" xlink:href="#linear-gradient"/><linearGradient id="linear-gradient-4" x1=".096" x2=".735" y1="1.149" y2="-.088" xlink:href="#linear-gradient"/><linearGradient id="linear-gradient-5" x1=".121" x2=".532" y1=".925" y2=".195" xlink:href="#linear-gradient"/></defs><g id="Mask_Group_271" clip-path="url(#clip-path)" data-name="Mask Group 271" transform="translate(-1023 -618)"><g id="Group_39487" data-name="Group 39487" opacity=".1" transform="translate(1669.186 737.055) rotate(180)"><path id="Path_81995" fill="url(#linear-gradient)" d="M472.523,40.571C348.925,55.415,223.65-12.375,101.771,12.348,40.569,24.764-13.043,59.414-64.875,93.526c-15.18,9.99-36.4,19.773-50.2,7.813-9.551-8.276-9.593-22.625-8.678-35.058a1151.114,1151.114,0,0,1,18.313-136.46c9.3-47.5,24.113-98.256,63.7-126.783,38.652-27.851,90.955-27.31,138.889-23.137,164.2,14.295,324.507,57.416,482.683,103.855,15.825,4.647,32.849,10.159,42.347,23.474,9.027,12.655,8.957,29.866,3.7,44.336C604.758,9.644,529.33,33.748,472.523,40.571Z" data-name="Path 81995" transform="translate(-8.221 -10.091)" style="mix-blend-mode:multiply;isolation:isolate"/><path id="Path_81996" fill="url(#linear-gradient-2)" d="M597.478-84.9a109.349,109.349,0,0,1,23.934,52.267A90.492,90.492,0,0,1,620.4,3.085,73.6,73.6,0,0,1,614.28,19.6,78.21,78.21,0,0,1,609.7,27.22c-1.756,2.62-2.069,5.847-4.11,8.368-1.708,2.109-3.484,2.04-5.767,2.868-2.064.748-4.106,2.311-6.1,3.289A115.535,115.535,0,0,1,580.547,47.2,140.622,140.622,0,0,1,552.34,53.62c-26.589,3.36-53.8.451-79.814-5.5C405.348,32.77,343.1,1.056,277.006-18.419S135.724-43.856,76.58-9.619c-38.4,22.231-65.515,58.682-94.938,91.57a688.58,688.58,0,0,1-54.117,54.1c-8.759,7.833-19.37,15.959-31.139,14.249-18.137-2.635-24.328-25.106-25.611-43.081a631.86,631.86,0,0,1,2.869-120.068c5.558-46.41,17.547-94.58,50.169-128.374C-45.152-173.372.428-188.016,45.156-194.4c76.439-10.91,154.342-1.12,231.1,8.671,70.492,8.992,141.346,18.058,209.542,38.049C527.469-135.462,569.754-117.942,597.478-84.9Z" data-name="Path 81996" transform="translate(-6.931 -14.524)" style="mix-blend-mode:multiply;isolation:isolate"/><path id="Path_81997" fill="url(#linear-gradient-3)" d="M452.6-12c-65.812-9.036-121.435-52.607-184.924-72.144C188.634-108.467,96.81-91.487,36.146-36.734,17.894-20.261,2.35-.647-18.261,12.883S-67.1,32.772-88.465,20.1C-104.813,10.4-113.55-8.194-117.8-26.465c-16.429-70.7,23.288-145.4,82.811-187.576s135.089-56.71,208.619-59.838c95.143-4.047,190.565,9.194,283.267,31.471,41.018,9.857,82.74,22.033,116.134,47.577,29.951,22.911,61.1,68.9,49.97,108.351-4.783,16.952-27.677,33.262-41.7,42.966a187.661,187.661,0,0,1-56.947,26.509A179.646,179.646,0,0,1,452.6-12Z" data-name="Path 81997" transform="translate(-8.723)" style="mix-blend-mode:multiply;isolation:isolate"/><path id="Path_81998" fill="url(#linear-gradient-4)" d="M476.517-53.292c-44.772,5.861-90.1-6.566-132.3-22.823s-83.07-36.535-126.961-47.53c-37.181-9.314-78.075-11.381-112.325,5.225-37.443,18.154-60.939,55.3-80.253,91.689S-12.71,48.383-44.769,74.634c-18.269,14.96-45.844,24.852-65.385,11.242-19.03-13.254-19.454-40.324-17.93-63.114,2.17-32.457,4.374-65.125,12.456-96.624s22.468-62.1,45.975-84.83c33.718-32.608,81.959-45.585,128.44-54.719,141.7-27.846,290.419-30.99,430.191,6.931,21.968,5.96,44.131,13.148,62.366,26.652,18.384,13.615,38.658,38.741,24.6,60.813C561.619-96.533,544.824-78.29,520.3-66.387A143.09,143.09,0,0,1,476.517-53.292Z" data-name="Path 81998" transform="translate(-7.354 -7.699)" style="mix-blend-mode:multiply;isolation:isolate"/><path id="Path_81999" fill="url(#linear-gradient-5)" d="M90.894,36.969C129.959,5.27,167.009-34.817,217.212-42.3c44.278-6.6,89.277,14.225,133.714,8.69,73.98-9.214,123.723-87.263,197.662-96.765,10.578-1.36,21.466-1.258,31.623-4.428s19.846-10.64,21.518-21c2.809-17.407-16.7-29.774-33.468-36.167-51.907-19.783-106.711-31-161.6-39.7C302.13-248.23,196.271-255.918,90.512-256.113,43.219-256.2-6.942-253.937-46.041-228.06c-49.522,32.777-68.533,94.32-84.178,151.068-14.623,53.043-32.444,116-11.715,170.153,7.766,20.289,52.311,15.695,70.682,14.183,27.849-2.291,55.06-9.819,80.592-20.715A344.846,344.846,0,0,0,90.894,36.969Z" data-name="Path 81999" opacity=".51" transform="translate(-2.976 -3.561)" style="mix-blend-mode:multiply;isolation:isolate"/><g id="Group_39484" data-name="Group 39484" transform="translate(-166.814 -88.39)"><path id="Path_82000" fill="none" stroke="#707070" stroke-miterlimit="10" stroke-width="1" d="M560.326,64.5C513.344,88.8,455.12,81.5,405.618,61.842s-93.59-50.478-141.33-74.019S161.872-52.086,110.22-39.746C66.983-29.417,30.994-.12,1.649,32.655s-53.635,69.727-83.523,102.024c-17.2,18.589-41.368,36.914-66.047,29.839" data-name="Path 82000" transform="translate(163.175 43.969)" style="mix-blend-mode:multiply;isolation:isolate"/><path id="Path_82001" fill="none" stroke="#707070" stroke-miterlimit="10" stroke-width="1" d="M-149.033,166.9c19.486,6.141,39.04-3.333,55.177-16.445a155,155,0,0,0,11.825-10.7c10.287-10.282,19.961-21.212,29.376-32.382,18.97-22.507,36.919-45.994,56.992-67.728,17.369-18.8,36.828-36.517,58.585-50.156a173.2,173.2,0,0,1,51.333-22.133c36.276-8.753,74.068-3.757,109.69,8.7A357.689,357.689,0,0,1,269.015-4.259c20.655,10.61,40.662,22.479,61.041,33.539,25.318,13.748,50.752,26.141,77.254,35.37q2.111.734,4.232,1.442C461.01,82.592,517.98,86.5,563.212,60.31" data-name="Path 82001" transform="translate(163.389 42.636)" style="mix-blend-mode:multiply;isolation:isolate"/><path id="Path_82002" fill="none" stroke="#707070" stroke-miterlimit="10" stroke-width="1" d="M-150.145,169.286c19.366,6.66,39.191-1.876,55.742-14.26a152.917,152.917,0,0,0,12.217-10.184c10.66-9.85,20.709-20.484,30.467-31.41C-32.055,91.418-13.509,68.211,7.027,46.645,24.8,27.983,44.534,10.343,66.528-3.3a178.282,178.282,0,0,1,51.763-22.227c36.586-8.914,74.733-4.249,110.439,8.69a347.345,347.345,0,0,1,45.012,20.5c20.637,11.027,40.664,23.2,61.382,33.9,25.721,13.288,51.594,24.073,78.11,31.614q2.111.6,4.231,1.172C466.9,83.686,522.615,84.2,566.1,56.118" data-name="Path 82002" transform="translate(163.603 41.303)" style="mix-blend-mode:multiply;isolation:isolate"/><path id="Path_82003" fill="none" stroke="#707070" stroke-miterlimit="10" stroke-width="1" d="M-151.256,171.67c19.245,7.179,39.34-.419,56.3-12.075a151.251,151.251,0,0,0,12.61-9.671,412.472,412.472,0,0,0,31.558-30.438c20.359-21.524,39.5-44.449,60.5-65.846C27.9,35.12,47.9,17.552,70.133,3.895a183.525,183.525,0,0,1,52.193-22.321c36.894-9.074,75.4-4.741,111.187,8.679C249.093-3.91,264.046,3.58,278.47,11.576c20.618,11.442,40.664,23.928,61.722,34.255a349.178,349.178,0,0,0,78.966,27.856q2.112.466,4.231.9c49.4,10.19,103.862,7.313,145.6-22.666" data-name="Path 82003" transform="translate(163.817 39.972)" style="mix-blend-mode:multiply;isolation:isolate"/><path id="Path_82004" fill="none" stroke="#707070" stroke-miterlimit="10" stroke-width="1" d="M-152.367,174.052c19.124,7.7,39.465,1,56.867-9.891A152.161,152.161,0,0,0-82.5,155a375.33,375.33,0,0,0,32.649-29.465c21.054-21.033,40.793-43.677,62.255-64.906C30.991,42.255,51.272,24.76,73.738,11.094a188.971,188.971,0,0,1,52.625-22.415c37.2-9.234,76.061-5.234,111.935,8.667,15.606,6.043,30.5,13.867,44.9,22.144,20.6,11.86,40.666,24.654,62.063,34.615a296.175,296.175,0,0,0,79.822,24.1q2.115.331,4.231.633c49.367,7.035,102.574.765,142.557-31.108" data-name="Path 82004" transform="translate(164.031 38.641)" style="mix-blend-mode:multiply;isolation:isolate"/><path id="Path_82005" fill="none" stroke="#707070" stroke-miterlimit="10" stroke-width="1" d="M-153.479,176.434c19,8.219,39.613,2.45,57.432-7.706a150.462,150.462,0,0,0,13.394-8.646,344.446,344.446,0,0,0,33.74-28.493c21.75-20.541,42.083-42.9,64.009-63.964C34.085,49.391,54.64,31.967,77.342,18.291A194.6,194.6,0,0,1,130.4-4.216c37.51-9.395,76.727-5.727,112.683,8.656,15.634,6.247,30.468,14.406,44.844,22.966,20.582,12.276,40.667,25.378,62.4,34.973,26.93,11.91,54.122,17.869,80.678,20.343q2.116.2,4.231.363C484.57,86.966,536.523,77.3,574.757,43.535" data-name="Path 82005" transform="translate(164.246 37.311)" style="mix-blend-mode:multiply;isolation:isolate"/><path id="Path_82006" fill="none" stroke="#707070" stroke-miterlimit="10" stroke-width="1" d="M-154.59,178.814c18.883,8.739,39.763,3.9,57.994-5.52a145.551,145.551,0,0,0,13.787-8.134,314,314,0,0,0,34.83-27.52C-25.534,117.59-4.6,95.508,17.786,74.616c19.394-18.09,40.224-35.442,63.162-49.127a200.4,200.4,0,0,1,53.487-22.6c37.818-9.555,77.391-6.219,113.431,8.645,15.663,6.453,30.436,14.946,44.789,23.789,20.564,12.692,40.668,26.1,62.743,35.331,27.334,11.451,54.965,15.8,81.535,16.586q2.116.063,4.23.094c49.3.726,100-12.328,136.481-47.992" data-name="Path 82006" transform="translate(164.46 35.981)" style="mix-blend-mode:multiply;isolation:isolate"/><path id="Path_82007" fill="none" stroke="#707070" stroke-miterlimit="10" stroke-width="1" d="M-155.7,181.194c18.761,9.258,39.913,5.355,58.558-3.335a143.619,143.619,0,0,0,14.179-7.62,293.2,293.2,0,0,0,35.922-26.548C-23.9,124.133-2.377,102.33,20.475,81.608c19.8-17.949,40.9-35.228,64.077-48.922a206.368,206.368,0,0,1,53.917-22.7,178.563,178.563,0,0,1,114.179,8.633c15.69,6.657,30.4,15.486,44.732,24.611,20.546,13.108,40.67,26.827,63.084,35.689,27.737,10.991,55.808,13.734,82.391,12.83q2.117-.071,4.229-.176C496.35,89.148,545.8,72.7,580.53,35.144" data-name="Path 82007" transform="translate(164.674 34.652)" style="mix-blend-mode:multiply;isolation:isolate"/><path id="Path_82008" fill="none" stroke="#707070" stroke-miterlimit="10" stroke-width="1" d="M-156.813,183.574c18.64,9.778,40.065,6.81,59.122-1.151a141.453,141.453,0,0,0,14.571-7.107c12.912-7.232,25.193-16.116,37.013-25.575C-22.274,130.673-.151,109.153,23.164,88.6c20.2-17.805,41.582-35.013,64.993-48.715a212.566,212.566,0,0,1,54.348-22.79c38.434-9.876,78.72-7.2,114.927,8.621,15.718,6.863,30.372,16.026,44.676,25.434C322.636,64.673,342.78,78.7,365.534,87.2c28.139,10.532,56.65,11.666,83.247,9.073q2.118-.206,4.229-.446c49.23-5.584,97.421-25.422,130.406-64.876" data-name="Path 82008" transform="translate(164.888 33.324)" style="mix-blend-mode:multiply;isolation:isolate"/><path id="Path_82009" fill="none" stroke="#707070" stroke-miterlimit="10" stroke-width="1" d="M-157.924,185.954c18.519,10.3,40.218,8.266,59.684,1.033a139.522,139.522,0,0,0,14.964-6.595c13.282-6.8,25.94-15.388,38.1-24.6,24.529-18.576,47.248-39.815,71.026-60.2,20.61-17.663,42.261-34.8,65.908-48.51a219.048,219.048,0,0,1,54.779-22.883c38.743-10.036,79.385-7.7,115.676,8.611,15.746,7.067,30.339,16.565,44.621,26.256C327.346,73,347.509,87.338,370.6,95.467c28.543,10.072,57.494,9.6,84.1,5.316q2.118-.34,4.228-.715C508.13,91.328,555.067,68.1,586.3,26.75" data-name="Path 82009" transform="translate(165.102 31.996)" style="mix-blend-mode:multiply;isolation:isolate"/><path id="Path_82010" fill="none" stroke="#707070" stroke-miterlimit="10" stroke-width="1" d="M-159.035,187.728c18.4,10.817,40.371,9.724,60.248,3.219a137.885,137.885,0,0,0,15.356-6.082c13.654-6.369,26.688-14.661,39.194-23.631,25.225-18.085,48.539-39.043,72.78-59.261,21.015-17.52,42.941-34.583,66.824-48.3a225.669,225.669,0,0,1,55.209-22.977c39.051-10.2,80.05-8.188,116.424,8.6,15.774,7.272,30.307,17.1,44.564,27.078,20.492,14.357,40.673,29,64.106,36.764,28.947,9.614,58.337,7.531,84.96,1.56q2.121-.475,4.229-.986C514.02,91.814,559.7,65.192,589.188,21.948" data-name="Path 82010" transform="translate(165.316 31.273)" style="mix-blend-mode:multiply;isolation:isolate"/><path id="Path_82011" fill="none" stroke="#707070" stroke-miterlimit="10" stroke-width="1" d="M-160.146,187.461c18.277,11.337,40.525,11.186,60.811,5.4A138.4,138.4,0,0,0-83.587,187.3c14.012-5.966,27.436-13.932,40.286-22.658,25.919-17.594,49.83-38.271,74.534-58.321,21.419-17.378,43.62-34.368,67.739-48.1a232.537,232.537,0,0,1,55.641-23.071c39.359-10.357,80.714-8.68,117.172,8.587,15.8,7.478,30.275,17.644,44.508,27.9,20.473,14.773,40.674,29.727,64.446,37.122,29.349,9.154,59.179,5.462,85.816-2.2q2.122-.609,4.228-1.256c49.128-15.048,93.557-45.062,121.292-90.2" data-name="Path 82011" transform="translate(165.53 32.591)" style="mix-blend-mode:multiply;isolation:isolate"/><path id="Path_82012" fill="none" stroke="#707070" stroke-miterlimit="10" stroke-width="1" d="M-161.258,187.195c18.157,11.857,40.679,12.648,61.375,7.589a136.6,136.6,0,0,0,16.141-5.057c14.385-5.534,28.183-13.2,41.376-21.685,26.614-17.1,51.122-37.5,76.288-57.38,21.825-17.235,44.3-34.154,68.654-47.892a239.675,239.675,0,0,1,56.071-23.164c39.667-10.518,81.379-9.173,117.921,8.576C292.4,55.864,306.81,66.365,321.019,76.9c20.455,15.19,40.676,30.452,64.787,37.482,29.752,8.694,60.022,3.394,86.672-5.954q2.122-.744,4.228-1.525C525.8,88.7,568.975,55.3,594.96,8.262" data-name="Path 82012" transform="translate(165.744 33.909)" style="mix-blend-mode:multiply;isolation:isolate"/><path id="Path_82013" fill="none" stroke="#707070" stroke-miterlimit="10" stroke-width="1" d="M-162.369,186.928c18.036,12.377,40.832,14.112,61.938,9.774A134.659,134.659,0,0,0-83.9,192.157c14.758-5.1,28.931-12.476,42.467-20.713,27.309-16.611,52.412-36.726,78.042-56.439,22.23-17.093,44.978-33.939,69.57-47.687a247.156,247.156,0,0,1,56.5-23.258c39.975-10.678,82.043-9.665,118.669,8.566,15.857,7.887,30.21,18.723,44.4,29.543,20.437,15.606,40.677,31.177,65.128,37.84,30.155,8.235,60.864,1.327,87.528-9.711q2.123-.879,4.228-1.795c49.06-21.358,90.98-58.157,115.216-107.086" data-name="Path 82013" transform="translate(165.958 35.227)" style="mix-blend-mode:multiply;isolation:isolate"/><path id="Path_82014" fill="none" stroke="#707070" stroke-miterlimit="10" stroke-width="1" d="M-163.48,186.661c17.914,12.9,40.992,15.613,62.5,11.959a131.9,131.9,0,0,0,16.925-4.031c15.13-4.671,29.678-11.749,43.558-19.741,28-16.12,53.7-35.954,79.8-55.5,22.635-16.95,45.658-33.724,70.486-47.481a254.822,254.822,0,0,1,56.933-23.351C207,37.679,249.427,38.36,286.136,57.071c15.885,8.093,30.178,19.263,44.34,30.366,20.418,16.023,40.677,31.9,65.468,38.2,30.558,7.776,61.707-.741,88.385-13.467q2.124-1.014,4.227-2.065C537.58,85.59,578.247,45.4,600.733-5.424" data-name="Path 82014" transform="translate(166.172 36.545)" style="mix-blend-mode:multiply;isolation:isolate"/><path id="Path_82015" fill="none" stroke="#707070" stroke-miterlimit="10" stroke-width="1" d="M-164.592,186.4c17.794,13.415,41.143,17.07,63.065,14.143a131.09,131.09,0,0,0,17.318-3.519c15.5-4.239,30.425-11.021,44.649-18.768,28.7-15.629,54.994-35.182,81.55-54.557,23.041-16.808,46.337-33.509,71.4-47.275a262.7,262.7,0,0,1,57.364-23.445c40.592-11,83.372-10.65,120.165,8.542,15.913,8.3,30.146,19.8,44.283,31.188,20.4,16.439,40.679,32.626,65.808,38.556,30.962,7.317,62.55-2.809,89.241-17.223q2.127-1.148,4.227-2.335c48.991-27.667,88.4-71.249,109.14-123.969" data-name="Path 82015" transform="translate(166.386 37.863)" style="mix-blend-mode:multiply;isolation:isolate"/><path id="Path_82016" fill="none" stroke="#707070" stroke-miterlimit="10" stroke-width="1" d="M-165.7,186.128c17.672,13.935,41.293,18.527,63.628,16.328a130.548,130.548,0,0,0,17.71-3.006c15.874-3.807,31.173-10.293,45.741-17.8,29.393-15.137,56.285-34.409,83.3-53.616C68.124,111.374,91.7,94.744,117,80.969a271.037,271.037,0,0,1,57.794-23.54C215.69,46.27,258.827,46.288,295.7,65.96c15.941,8.5,30.113,20.342,44.227,32.011,20.382,16.855,40.68,33.351,66.149,38.915,31.365,6.856,63.392-4.877,90.1-20.98q2.127-1.283,4.227-2.6c48.957-30.822,87.116-77.8,106.1-132.411" data-name="Path 82016" transform="translate(166.6 39.181)" style="mix-blend-mode:multiply;isolation:isolate"/><path id="Path_82017" fill="none" stroke="#707070" stroke-miterlimit="10" stroke-width="1" d="M-166.814,185.861c17.551,14.455,41.443,19.985,64.191,18.513s44.553-9.4,64.933-19.316C18.51,157.7,65.64,115.186,120.6,85.518s124.705-45.2,179.887-15.113c39.048,21.292,67,63.312,110.661,72.106,31.768,6.4,64.235-6.945,90.953-24.737,51.023-33.976,89.561-85.6,107.291-143.728" data-name="Path 82017" transform="translate(166.814 40.499)" style="mix-blend-mode:multiply;isolation:isolate"/></g><g id="Group_39485" data-name="Group 39485" transform="translate(-91.299 -248.316)"><path id="Path_82018" fill="none" stroke="#707070" stroke-miterlimit="10" stroke-width="1" d="M-2.9-114.076c52.278-23.158,118.081-14.234,174.393,6.881S278.323-53.878,332.756-28.9,449.241,14.025,507.1,3.017C555.541-6.2,595.3-34.686,627.471-66.854S686.009-135.53,718.809-167.2c18.879-18.231,45.607-36,73.609-28.218" data-name="Path 82018" transform="translate(59.728 233.427)" style="mix-blend-mode:multiply;isolation:isolate"/><path id="Path_82019" fill="none" stroke="#707070" stroke-miterlimit="10" stroke-width="1" d="M792.6-196.8c-22.124-6.706-43.9,2.291-61.726,15.041a157.508,157.508,0,0,0-13.033,10.437c-11.312,10.063-21.914,20.793-32.219,31.773-20.763,22.121-40.35,45.258-62.377,66.573-19.059,18.442-40.5,35.729-64.648,48.855A197.819,197.819,0,0,1,501.361-3.248C460.723,4.57,418-1.483,377.529-14.983A452.707,452.707,0,0,1,326.211-36C302.649-47.236,279.783-59.716,256.52-71.4c-28.9-14.516-57.9-27.673-88.009-37.676q-2.4-.8-4.807-1.566c-56.187-17.941-120.485-23.418-170.741,1.692" data-name="Path 82019" transform="translate(60.525 233.769)" style="mix-blend-mode:multiply;isolation:isolate"/><path id="Path_82020" fill="none" stroke="#707070" stroke-miterlimit="10" stroke-width="1" d="M792.788-198.183c-22-7.226-44.108.821-62.42,12.828a157.6,157.6,0,0,0-13.489,9.911A452.983,452.983,0,0,0,683.4-144.679c-21.559,21.608-41.825,44.446-64.378,65.579C599.5-60.813,577.75-43.606,553.339-30.477A203.7,203.7,0,0,1,495.619-9.527c-40.981,7.971-84.092,2.242-124.676-11.744a438.633,438.633,0,0,1-51.276-21.844c-23.553-11.652-46.449-24.444-70.085-35.764-29.343-14.065-58.79-25.616-88.872-33.921q-2.4-.661-4.8-1.294c-56.064-14.767-118.857-16.8-167.088,10.265" data-name="Path 82020" transform="translate(61.323 234.124)" style="mix-blend-mode:multiply;isolation:isolate"/><path id="Path_82021" fill="none" stroke="#707070" stroke-miterlimit="10" stroke-width="1" d="M792.973-199.586c-21.88-7.745-44.317-.648-63.115,10.615a158.11,158.11,0,0,0-13.945,9.385,413.241,413.241,0,0,0-34.731,29.757c-22.356,21.1-43.3,43.634-66.381,64.586-19.98,18.132-42.046,35.26-66.722,48.391a209.868,209.868,0,0,1-58.2,21.033C448.552-7.7,405.048-13.1,364.357-27.572a426.015,426.015,0,0,1-51.235-22.669c-23.544-12.071-46.471-25.174-70.478-36.134a445.28,445.28,0,0,0-89.735-30.166q-2.393-.526-4.791-1.023c-55.94-11.593-117.227-10.179-163.436,18.84" data-name="Path 82021" transform="translate(62.12 234.494)" style="mix-blend-mode:multiply;isolation:isolate"/><path id="Path_82022" fill="none" stroke="#707070" stroke-miterlimit="10" stroke-width="1" d="M793.157-201c-21.758-8.264-44.495-2.078-63.808,8.4a161.56,161.56,0,0,0-14.4,8.858,380.76,380.76,0,0,0-35.986,28.75C655.809-134.41,634.185-112.17,610.578-91.4c-20.44,17.978-42.817,35.025-67.759,48.16a216.147,216.147,0,0,1-58.686,21.114c-41.667,8.277-85.563,3.2-126.361-11.761-17.75-6.5-34.745-14.777-51.2-23.494-23.534-12.489-46.491-25.9-70.872-36.5a378.632,378.632,0,0,0-90.6-26.41q-2.392-.391-4.785-.752c-55.815-8.419-115.6-3.559-159.783,27.413" data-name="Path 82022" transform="translate(62.918 234.877)" style="mix-blend-mode:multiply;isolation:isolate"/><path id="Path_82023" fill="none" stroke="#707070" stroke-miterlimit="10" stroke-width="1" d="M793.342-202.437c-21.636-8.784-44.7-3.54-64.5,6.189a162.113,162.113,0,0,0-14.858,8.332,353.837,353.837,0,0,0-37.242,27.741c-23.948,20.07-46.253,42.01-70.385,62.6-20.9,17.823-43.588,34.79-68.8,47.928a222.681,222.681,0,0,1-59.17,21.2c-42.01,8.429-86.3,3.673-127.2-11.77-17.787-6.709-34.723-15.32-51.154-24.32-23.525-12.907-46.512-26.632-71.265-36.873-30.669-12.712-61.469-19.445-91.459-22.656q-2.388-.256-4.777-.48C76.84-129.8,18.564-121.49-23.6-88.564" data-name="Path 82023" transform="translate(63.715 235.279)" style="mix-blend-mode:multiply;isolation:isolate"/><path id="Path_82024" fill="none" stroke="#707070" stroke-miterlimit="10" stroke-width="1" d="M793.527-203.89c-21.514-9.3-44.909-5.005-65.2,3.976a159.2,159.2,0,0,0-15.314,7.806,326.436,326.436,0,0,0-38.5,26.734c-24.745,19.557-47.728,41.2-72.387,61.6-21.361,17.67-44.359,34.556-69.833,47.7A229.42,229.42,0,0,1,472.647-34.8c-42.352,8.583-87.033,4.151-128.046-11.779-17.823-6.915-34.7-15.86-51.113-25.146-23.516-13.325-46.533-27.361-71.659-37.243-31.11-12.261-62.362-17.388-92.322-18.9q-2.386-.12-4.769-.209C69.171-130.143,12.4-118.391-27.739-83.512" data-name="Path 82024" transform="translate(64.513 235.699)" style="mix-blend-mode:multiply;isolation:isolate"/><path id="Path_82025" fill="none" stroke="#707070" stroke-miterlimit="10" stroke-width="1" d="M793.712-205.365c-21.392-9.823-45.119-6.47-65.891,1.763a159.157,159.157,0,0,0-15.769,7.279A308.309,308.309,0,0,0,672.3-170.6c-25.541,19.044-49.2,40.387-74.389,60.61-21.821,17.515-45.13,34.322-70.87,47.464A236.4,236.4,0,0,1,466.9-41.16,226.384,226.384,0,0,1,338.015-52.949c-17.86-7.122-34.679-16.4-51.073-25.971-23.506-13.743-46.554-28.089-72.051-37.613-31.552-11.81-63.256-15.331-93.185-15.144q-2.383.015-4.761.062C61.5-130.51,6.236-115.313-31.88-78.479" data-name="Path 82025" transform="translate(65.31 236.14)" style="mix-blend-mode:multiply;isolation:isolate"/><path id="Path_82026" fill="none" stroke="#707070" stroke-miterlimit="10" stroke-width="1" d="M793.9-206.86c-21.269-10.342-45.33-7.938-66.584-.451a159.2,159.2,0,0,0-16.225,6.753c-14.352,6.923-27.949,15.525-41.009,24.718-26.337,18.531-50.679,39.574-76.391,59.616-22.282,17.361-45.9,34.087-71.907,47.233a243.65,243.65,0,0,1-60.618,21.444,223.675,223.675,0,0,1-129.731-11.8c-17.9-7.33-34.657-16.945-51.031-26.8-23.5-14.162-46.575-28.818-72.445-37.982-31.994-11.358-64.149-13.274-94.047-11.389q-2.381.15-4.753.333C53.833-130.9.073-112.256-36.021-73.47" data-name="Path 82026" transform="translate(66.108 236.603)" style="mix-blend-mode:multiply;isolation:isolate"/><path id="Path_82027" fill="none" stroke="#707070" stroke-miterlimit="10" stroke-width="1" d="M794.082-208.381c-21.147-10.861-45.541-9.408-67.279-2.663a159.076,159.076,0,0,0-16.682,6.227c-14.782,6.478-28.81,14.772-42.265,23.71-27.133,18.018-52.155,38.763-78.393,58.622-22.742,17.206-46.673,33.852-72.944,47a251.177,251.177,0,0,1-61.1,21.528c-43.381,9.041-89.24,5.582-130.574-11.807-17.934-7.536-34.636-17.487-50.99-27.621-23.489-14.58-46.6-29.548-72.839-38.352-32.435-10.908-65.042-11.217-94.909-7.635q-2.379.286-4.746.606C46.165-131.314-6.091-109.225-40.161-68.484" data-name="Path 82027" transform="translate(66.905 237.091)" style="mix-blend-mode:multiply;isolation:isolate"/><path id="Path_82028" fill="none" stroke="#707070" stroke-miterlimit="10" stroke-width="1" d="M794.267-209.929c-21.025-11.38-45.753-10.879-67.973-4.875a159.1,159.1,0,0,0-17.138,5.7c-15.211,6.034-29.673,14.02-43.52,22.7-27.93,17.5-53.631,37.951-80.395,57.628C562.038-111.722,537.8-95.156,511.259-82a258.839,258.839,0,0,1-61.583,21.61C405.951-51.2,359.7-54.336,318.258-72.21c-17.971-7.744-34.614-18.028-50.949-28.447-23.48-15-46.618-30.277-73.232-38.722-32.877-10.457-65.936-9.16-95.772-3.879q-2.376.42-4.738.876C38.5-131.755-12.255-106.219-44.3-63.525" data-name="Path 82028" transform="translate(67.703 237.605)" style="mix-blend-mode:multiply;isolation:isolate"/><path id="Path_82029" fill="none" stroke="#707070" stroke-miterlimit="10" stroke-width="1" d="M794.452-211.5c-20.9-11.9-45.967-12.352-68.667-7.089a161.639,161.639,0,0,0-17.593,5.174c-15.626,5.619-30.535,13.268-44.777,21.695-28.726,16.992-55.106,37.139-82.4,56.634C557.356-118.192,532.8-101.706,506-88.552A266.961,266.961,0,0,1,443.933-66.86c-44.068,9.347-90.711,6.536-132.26-11.824-18.008-7.95-34.592-18.57-50.909-29.272-23.469-15.416-46.638-31.006-73.626-39.092-33.319-10.005-66.829-7.1-96.635-.124q-2.374.556-4.731,1.148c-54.946,13.8-104.191,42.781-134.215,87.43" data-name="Path 82029" transform="translate(68.5 238.146)" style="mix-blend-mode:multiply;isolation:isolate"/><path id="Path_82030" fill="none" stroke="#707070" stroke-miterlimit="10" stroke-width="1" d="M794.636-213.108c-20.78-12.419-46.18-13.827-69.361-9.3a161.174,161.174,0,0,0-18.049,4.647c-16.057,5.175-31.4,12.515-46.032,20.687-29.522,16.478-56.582,36.327-84.4,55.639-24.123,16.743-48.986,33.149-76.056,46.306a275.226,275.226,0,0,1-62.55,21.775c-44.41,9.5-91.446,7.013-133.1-11.832-18.045-8.158-34.571-19.112-50.868-30.1-23.46-15.835-46.659-31.735-74.019-39.461-33.76-9.554-67.723-5.046-97.5,3.632q-2.371.692-4.722,1.419c-54.822,16.975-102.562,49.4-130.563,96" data-name="Path 82030" transform="translate(69.298 238.718)" style="mix-blend-mode:multiply;isolation:isolate"/><path id="Path_82031" fill="none" stroke="#707070" stroke-miterlimit="10" stroke-width="1" d="M794.821-214.743c-20.658-12.939-46.393-15.3-70.055-11.515a160.934,160.934,0,0,0-18.505,4.122c-16.489,4.731-32.259,11.762-47.287,19.679-30.319,15.965-58.058,35.516-86.4,54.646-24.584,16.588-49.758,32.914-77.093,46.073A283.9,283.9,0,0,1,432.446-79.88c-44.752,9.653-92.181,7.49-133.944-11.842-18.082-8.365-34.549-19.654-50.827-30.923-23.452-16.253-46.681-32.464-74.413-39.83-34.2-9.1-68.616-2.99-98.36,7.386q-2.369.827-4.714,1.691C15.489-133.25-30.746-97.377-56.723-48.821" data-name="Path 82031" transform="translate(70.095 239.32)" style="mix-blend-mode:multiply;isolation:isolate"/><path id="Path_82032" fill="none" stroke="#707070" stroke-miterlimit="10" stroke-width="1" d="M795.006-216.414c-20.536-13.458-46.613-16.818-70.75-13.727a158.828,158.828,0,0,0-18.961,3.595c-16.921,4.286-33.121,11.01-48.544,18.671-31.115,15.453-59.534,34.7-88.4,53.652-25.044,16.434-50.529,32.68-78.13,45.841A292.777,292.777,0,0,1,426.7-86.442c-45.1,9.807-92.917,7.967-134.787-11.85-18.12-8.572-34.527-20.2-50.787-31.749-23.442-16.671-46.7-33.193-74.805-40.2-34.645-8.652-69.509-.933-99.223,11.142q-2.366.962-4.707,1.962C7.819-133.815-36.909-94.5-60.864-43.986" data-name="Path 82032" transform="translate(70.893 239.957)" style="mix-blend-mode:multiply;isolation:isolate"/><path id="Path_82033" fill="none" stroke="#707070" stroke-miterlimit="10" stroke-width="1" d="M795.192-218.111c-20.414-13.978-46.822-18.289-71.444-15.94a159.256,159.256,0,0,0-19.417,3.068c-17.353,3.842-33.983,10.258-49.8,17.663-31.911,14.939-61.009,33.891-90.406,52.658-25.5,16.279-51.3,32.444-79.167,45.61a302.141,302.141,0,0,1-64,22.023c-45.439,9.959-93.652,8.444-135.63-11.86-18.156-8.779-34.506-20.738-50.746-32.574-23.433-17.089-46.722-33.923-75.2-40.571-35.085-8.2-70.4,1.125-100.086,14.9q-2.364,1.1-4.7,2.233C.151-134.406-43.073-91.641-65-39.179" data-name="Path 82033" transform="translate(71.69 240.622)" style="mix-blend-mode:multiply;isolation:isolate"/><path id="Path_82034" fill="none" stroke="#707070" stroke-miterlimit="10" stroke-width="1" d="M795.377-219.841c-20.292-14.5-47.032-19.759-72.138-18.153a159.968,159.968,0,0,0-19.873,2.542c-17.784,3.4-34.845,9.5-51.055,16.655-32.708,14.427-62.485,33.08-92.407,51.664-25.964,16.124-52.071,32.21-80.2,45.378a311.791,311.791,0,0,1-64.481,22.1c-45.782,10.113-94.388,8.922-136.473-11.868-18.193-8.985-34.484-21.28-50.7-33.4-23.424-17.508-46.743-34.652-75.592-40.941-35.528-7.749-71.3,3.182-100.949,18.652q-2.362,1.233-4.692,2.505C-7.518-135.029-49.237-88.818-69.145-34.4" data-name="Path 82034" transform="translate(72.488 241.318)" style="mix-blend-mode:multiply;isolation:isolate"/><path id="Path_82035" fill="none" stroke="#707070" stroke-miterlimit="10" stroke-width="1" d="M795.561-221.6c-20.17-15.017-47.24-21.229-72.832-20.367s-49.945,8.239-72.64,17.663c-62.58,25.988-114.529,67.47-175.65,95.816s-139.285,42.076-202.28,10.31c-44.576-22.478-77.209-65.5-126.65-75.535C109.541-201.01,73.32-188.473,43.7-171.3-12.868-138.517-54.889-87.637-73.285-29.656" data-name="Path 82035" transform="translate(73.285 242.045)" style="mix-blend-mode:multiply;isolation:isolate"/></g></g></g></svg>